<svg xmlns="http://www.w3.org/2000/svg" viewBox="0 0 760 920" role="img" aria-labelledby="title desc">
  <title id="title">طلاب في بيئة تعليمية</title>
  <desc id="desc">رسم توضيحي لثلاثة طلاب يحملون الكتب داخل مدرسة حديثة</desc>
  <defs>
    <linearGradient id="bg" x1="0" y1="0" x2="1" y2="1"><stop offset="0" stop-color="#dceeff"/><stop offset="1" stop-color="#4a90d9"/></linearGradient>
    <linearGradient id="uniform" x1="0" y1="0" x2="0" y2="1"><stop offset="0" stop-color="#ffffff"/><stop offset="1" stop-color="#dfeaf6"/></linearGradient>
    <filter id="shadow" x="-20%" y="-20%" width="140%" height="160%"><feDropShadow dx="0" dy="18" stdDeviation="18" flood-color="#06162d" flood-opacity=".22"/></filter>
  </defs>
  <rect width="760" height="920" rx="52" fill="url(#bg)"/>
  <circle cx="650" cy="140" r="160" fill="#ffffff" opacity=".18"/>
  <circle cx="90" cy="720" r="190" fill="#0b2b55" opacity=".12"/>
  <path d="M0 640C150 590 285 660 430 610c132-45 233-37 330 8v302H0Z" fill="#0b2b55" opacity=".16"/>
  <g opacity=".25" fill="#fff"><rect x="55" y="105" width="160" height="12" rx="6"/><rect x="55" y="132" width="110" height="8" rx="4"/><rect x="555" y="735" width="145" height="12" rx="6"/><rect x="590" y="762" width="110" height="8" rx="4"/></g>
  <g filter="url(#shadow)">
    <g transform="translate(45 270)">
      <ellipse cx="170" cy="145" rx="85" ry="96" fill="#5b331f"/>
      <path d="M92 132c2-80 33-125 82-125 53 0 84 44 86 123-35-21-69-29-101-22-24 5-46 14-67 24Z" fill="#142c46"/>
      <path d="M122 154c14 17 31 26 50 26 20 0 38-10 51-28" fill="none" stroke="#3a1f14" stroke-width="8" stroke-linecap="round"/>
      <circle cx="140" cy="135" r="6" fill="#1a1716"/><circle cx="204" cy="135" r="6" fill="#1a1716"/>
      <path d="M70 255c26-45 66-67 102-67s77 22 104 67l29 215H40Z" fill="url(#uniform)"/>
      <path d="M150 194h44l-9 58h-26Z" fill="#d5a481"/><path d="M145 207l27 46 27-46 28 28-55 75-55-75Z" fill="#2565a7"/>
      <rect x="66" y="308" width="210" height="135" rx="15" fill="#dfb45c" transform="rotate(-5 171 375)"/><rect x="83" y="323" width="176" height="13" rx="6" fill="#fff" opacity=".75" transform="rotate(-5 171 375)"/>
      <path d="M55 295c38 35 73 58 106 70" fill="none" stroke="#5b331f" stroke-width="25" stroke-linecap="round"/><path d="M286 302c-30 35-61 57-94 70" fill="none" stroke="#5b331f" stroke-width="25" stroke-linecap="round"/>
    </g>
    <g transform="translate(270 190)">
      <ellipse cx="170" cy="145" rx="88" ry="100" fill="#74432a"/>
      <path d="M83 124c8-78 41-116 88-116 51 0 83 40 87 119-29-18-61-28-95-27-30 1-56 9-80 24Z" fill="#0f2238"/>
      <path d="M120 158c15 18 32 27 52 27 21 0 39-10 53-29" fill="none" stroke="#482819" stroke-width="8" stroke-linecap="round"/>
      <circle cx="138" cy="137" r="6" fill="#171412"/><circle cx="205" cy="137" r="6" fill="#171412"/>
      <path d="M60 260c29-48 70-70 111-70 40 0 82 22 112 70l33 242H27Z" fill="url(#uniform)"/>
      <path d="M149 198h46l-8 60h-30Z" fill="#d9a481"/><path d="M142 210l30 48 30-48 33 31-63 82-63-82Z" fill="#103b68"/>
      <rect x="63" y="345" width="222" height="142" rx="15" fill="#2565a7"/><rect x="82" y="365" width="184" height="14" rx="7" fill="#fff" opacity=".78"/><rect x="82" y="392" width="125" height="10" rx="5" fill="#fff" opacity=".42"/>
      <path d="M45 315c41 40 78 65 117 79" fill="none" stroke="#74432a" stroke-width="26" stroke-linecap="round"/><path d="M298 318c-35 41-70 65-111 80" fill="none" stroke="#74432a" stroke-width="26" stroke-linecap="round"/>
    </g>
    <g transform="translate(500 305)">
      <ellipse cx="110" cy="118" rx="72" ry="82" fill="#4d2b1c"/>
      <path d="M39 105c5-65 32-98 72-98 42 0 69 34 72 100-25-15-52-23-80-21-24 1-45 7-64 19Z" fill="#142c46"/>
      <path d="M72 130c11 14 25 21 40 21 17 0 31-8 42-23" fill="none" stroke="#321c13" stroke-width="7" stroke-linecap="round"/>
      <circle cx="84" cy="113" r="5" fill="#141211"/><circle cx="137" cy="113" r="5" fill="#141211"/>
      <path d="M20 215c22-39 55-57 91-57 34 0 68 18 91 57l25 185H0Z" fill="url(#uniform)"/>
      <path d="M93 164h38l-7 48h-24Z" fill="#c88e68"/><path d="M88 173l23 39 23-39 25 24-48 62-48-62Z" fill="#4a90d9"/>
      <rect x="27" y="270" width="166" height="106" rx="13" fill="#dfb45c" transform="rotate(5 110 323)"/>
      <path d="M14 251c29 26 57 44 83 55" fill="none" stroke="#4d2b1c" stroke-width="21" stroke-linecap="round"/><path d="M207 252c-25 29-52 46-80 56" fill="none" stroke="#4d2b1c" stroke-width="21" stroke-linecap="round"/>
    </g>
  </g>
  <g transform="translate(70 730)"><rect width="620" height="105" rx="26" fill="#fff" opacity=".94"/><circle cx="60" cy="52" r="27" fill="#2565a7"/><path d="M47 52l9 9 18-21" fill="none" stroke="#fff" stroke-width="7" stroke-linecap="round" stroke-linejoin="round"/><text x="105" y="47" font-family="Arial, sans-serif" font-size="25" font-weight="700" fill="#081f3d">LECIM</text><text x="105" y="75" font-family="Arial, sans-serif" font-size="16" fill="#66778a">Éducation • Qualité • Citoyenneté</text></g>
</svg>
